<svg width="148" height="78" viewBox="0 0 148 78" fill="none" xmlns="http://www.w3.org/2000/svg">
<path d="M32.767 48.5653H36.304C36.2528 45.4545 33.696 43.3068 29.8097 43.3068C25.983 43.3068 23.179 45.4205 23.196 48.5909C23.1875 51.1648 25.0028 52.6392 27.9517 53.3466L29.8523 53.8239C31.7528 54.2841 32.8097 54.8295 32.8182 56.0057C32.8097 57.2841 31.5994 58.1534 29.7244 58.1534C27.8068 58.1534 26.4261 57.267 26.3068 55.5199H22.7358C22.8295 59.2955 25.5312 61.2472 29.767 61.2472C34.0284 61.2472 36.5341 59.2102 36.5426 56.0142C36.5341 53.108 34.3438 51.5653 31.3097 50.8835L29.7415 50.5085C28.2244 50.1591 26.9545 49.5966 26.9801 48.3438C26.9801 47.2188 27.9773 46.392 29.7841 46.392C31.5483 46.392 32.6307 47.1932 32.767 48.5653ZM41.4249 61H53.2203V57.9574H45.1152V53.7898H52.5811V50.7472H45.1152V46.5881H53.1862V43.5455H41.4249V61ZM58.5202 61H62.2105V54.8125H64.9037L68.2105 61H72.2844L68.577 54.2159C70.5628 53.3636 71.6622 51.6335 71.6622 49.2472C71.6622 45.7784 69.3696 43.5455 65.4065 43.5455H58.5202V61ZM62.2105 51.8466V46.5625H64.6991C66.8298 46.5625 67.8611 47.5085 67.8611 49.2472C67.8611 50.9773 66.8298 51.8466 64.7162 51.8466H62.2105ZM76.0054 46.5881H81.3491V61H84.9969V46.5881H90.3406V43.5455H76.0054V46.5881ZM95.1014 61H106.897V57.9574H98.7918V53.7898H106.258V50.7472H98.7918V46.5881H106.863V43.5455H95.1014V61ZM112.197 61H115.887V55.3409H118.989C123.004 55.3409 125.339 52.946 125.339 49.4602C125.339 45.9915 123.046 43.5455 119.083 43.5455H112.197V61ZM115.887 52.3835V46.5625H118.376C120.506 46.5625 121.538 47.7216 121.538 49.4602C121.538 51.1903 120.506 52.3835 118.393 52.3835H115.887ZM28.6904 66.8551H29.8693C29.8523 65.8182 29 65.1023 27.7046 65.1023C26.429 65.1023 25.4943 65.8068 25.5 66.8636C25.4972 67.7216 26.1023 68.2131 27.0852 68.4489L27.7188 68.608C28.3523 68.7614 28.7046 68.9432 28.7074 69.3352C28.7046 69.7614 28.3011 70.0511 27.6761 70.0511C27.0369 70.0511 26.5767 69.7557 26.5369 69.1733H25.3466C25.3779 70.4318 26.2784 71.0824 27.6904 71.0824C29.1108 71.0824 29.946 70.4034 29.9489 69.3381C29.946 68.3693 29.2159 67.8551 28.2046 67.6278L27.6818 67.5028C27.1761 67.3864 26.7529 67.1989 26.7614 66.7812C26.7614 66.4062 27.0938 66.1307 27.696 66.1307C28.2841 66.1307 28.6449 66.3977 28.6904 66.8551ZM31.5131 71H34.9534V70.1126H32.5894V68.897H34.767V68.0096H32.5894V66.7965H34.9435V65.9091H31.5131V71ZM36.4992 71H37.5756V69.1953H38.3611L39.3256 71H40.5138L39.4325 69.0213C40.0116 68.7727 40.3323 68.2681 40.3323 67.5721C40.3323 66.5604 39.6636 65.9091 38.5077 65.9091H36.4992V71ZM37.5756 68.3303V66.7891H38.3014C38.9229 66.7891 39.2236 67.065 39.2236 67.5721C39.2236 68.0767 38.9229 68.3303 38.3064 68.3303H37.5756ZM42.5692 65.9091H41.3735L43.1309 71H44.518L46.273 65.9091H45.0798L43.8469 69.777H43.7996L42.5692 65.9091ZM48.6621 65.9091H47.5857V71H48.6621V65.9091ZM54.7395 67.6914C54.5978 66.5156 53.7079 65.8395 52.5296 65.8395C51.1848 65.8395 50.1582 66.7891 50.1582 68.4545C50.1582 69.9982 51.0307 70.9329 52.2487 71.0547L52.1518 71.4897C52.4973 71.532 52.6564 71.6289 52.6489 71.8327C52.6415 72.044 52.3904 72.1435 51.9728 72.1435L51.9827 72.6158C52.8155 72.6158 53.2977 72.3001 53.2952 71.8054C53.2927 71.4574 53.0516 71.2536 52.7111 71.2013L52.7359 71.0621C53.9167 70.9751 54.6301 70.1523 54.7395 69.2649L53.6507 69.2599C53.5488 69.8043 53.1212 70.1175 52.547 70.1175C51.7739 70.1175 51.2494 69.5433 51.2494 68.4545C51.2494 67.3956 51.7665 66.7915 52.5545 66.7915C53.1436 66.7915 53.5687 67.1321 53.6507 67.6914H54.7395ZM60.8896 68.4545C60.8896 66.7891 59.8555 65.8395 58.5057 65.8395C57.1485 65.8395 56.1218 66.7891 56.1218 68.4545C56.1218 70.1126 57.1485 71.0696 58.5057 71.0696C59.8555 71.0696 60.8896 70.12 60.8896 68.4545ZM59.7983 68.4545C59.7983 69.5334 59.2862 70.1175 58.5057 70.1175C57.7227 70.1175 57.2131 69.5334 57.2131 68.4545C57.2131 67.3757 57.7227 66.7915 58.5057 66.7915C59.2862 66.7915 59.7983 67.3757 59.7983 68.4545ZM64.707 71H68.1474V70.1126H65.7834V68.897H67.9609V68.0096H65.7834V66.7965H68.1374V65.9091H64.707V71ZM71.4978 71C73.049 71 73.9886 70.0405 73.9886 68.4496C73.9886 66.8636 73.049 65.9091 71.5128 65.9091H69.6932V71H71.4978ZM70.7695 70.0778V66.8313H71.4556C72.4101 66.8313 72.9147 67.3185 72.9147 68.4496C72.9147 69.5856 72.4101 70.0778 71.4531 70.0778H70.7695ZM78.6305 65.9091V69.1232C78.6305 69.7049 78.2228 70.125 77.5964 70.125C76.9724 70.125 76.5623 69.7049 76.5623 69.1232V65.9091H75.4859V69.2152C75.4859 70.3288 76.3261 71.0721 77.5964 71.0721C78.8616 71.0721 79.7068 70.3288 79.7068 69.2152V65.9091H78.6305ZM85.7842 67.6914C85.6425 66.5156 84.7526 65.8395 83.5743 65.8395C82.2295 65.8395 81.2029 66.7891 81.2029 68.4545C81.2029 70.1151 82.2121 71.0696 83.5743 71.0696C84.8794 71.0696 85.6674 70.2021 85.7842 69.2649L84.6954 69.2599C84.5935 69.8043 84.166 70.1175 83.5917 70.1175C82.8186 70.1175 82.2941 69.5433 82.2941 68.4545C82.2941 67.3956 82.8112 66.7915 83.5992 66.7915C84.1883 66.7915 84.6134 67.1321 84.6954 67.6914H85.7842ZM88.0378 71L88.4157 69.8391H90.2527L90.6305 71H91.7839L90.029 65.9091H88.6419L86.8844 71H88.0378ZM88.6891 68.9989L89.3155 67.0724H89.3553L89.9817 68.9989H88.6891ZM97.3492 67.6914C97.2076 66.5156 96.3176 65.8395 95.1394 65.8395C93.7946 65.8395 92.7679 66.7891 92.7679 68.4545C92.7679 70.1151 93.7772 71.0696 95.1394 71.0696C96.4444 71.0696 97.2324 70.2021 97.3492 69.2649L96.2605 69.2599C96.1585 69.8043 95.731 70.1175 95.1568 70.1175C94.3837 70.1175 93.8592 69.5433 93.8592 68.4545C93.8592 67.3956 94.3762 66.7915 95.1642 66.7915C95.7534 66.7915 96.1784 67.1321 96.2605 67.6914H97.3492ZM99.8974 65.9091H98.8211V71H99.8974V65.9091ZM106.161 68.4545C106.161 66.7891 105.127 65.8395 103.777 65.8395C102.42 65.8395 101.394 66.7891 101.394 68.4545C101.394 70.1126 102.42 71.0696 103.777 71.0696C105.127 71.0696 106.161 70.12 106.161 68.4545ZM105.07 68.4545C105.07 69.5334 104.558 70.1175 103.777 70.1175C102.994 70.1175 102.485 69.5334 102.485 68.4545C102.485 67.3757 102.994 66.7915 103.777 66.7915C104.558 66.7915 105.07 67.3757 105.07 68.4545ZM111.917 65.9091H110.845V69.1108H110.801L108.603 65.9091H107.659V71H108.735V67.7958H108.772L110.987 71H111.917V65.9091ZM114.384 71L114.761 69.8391H116.598L116.976 71H118.13L116.375 65.9091H114.988L113.23 71H114.384ZM115.035 68.9989L115.661 67.0724H115.701L116.327 68.9989H115.035ZM119.442 71H122.701V70.1126H120.519V65.9091H119.442V71Z" fill="white"/>
<rect x="74" y="18" width="12" height="10" rx="1" fill="white"/>
<rect x="60" y="8" width="12" height="10" rx="1" fill="white"/>
<rect x="74" width="12" height="10" rx="1" fill="white"/>
<rect x="60" y="28" width="12" height="10" rx="1" fill="white"/>
</svg>
